<?xml version="1.0" encoding="utf-8"?>
<!-- Generator: Adobe Illustrator 15.1.0, SVG Export Plug-In . SVG Version: 6.00 Build 0)  -->
<!DOCTYPE svg PUBLIC "-//W3C//DTD SVG 1.1//EN" "http://www.w3.org/Graphics/SVG/1.1/DTD/svg11.dtd">
<svg version="1.1" xmlns="http://www.w3.org/2000/svg" xmlns:xlink="http://www.w3.org/1999/xlink" x="0px" y="0px" width="69px"
	 height="72px" viewBox="0 0 69 72" enable-background="new 0 0 69 72" xml:space="preserve">
<g id="Layer_42">
	<path fill="#004272" d="M29.183,4.827V3.898h-9.047v0.896l-4.993,4.153v63.054h18.966V8.948L29.183,4.827z M21.136,5.985h6.904
		l3.813,2.995L17.467,8.979L21.136,5.985z M32.27,69.998H17.056l-0.037-3.008h15.214L32.27,69.998z M32.358,65.98H17.056V9.903
		H32.27L32.358,65.98z"/>
	<rect x="20.877" y="1.9" fill="#004272" width="7.523" height="1.052"/>
	<rect x="20.883" y="0" fill="#004272" width="7.518" height="0.991"/>
	<path fill="#004272" d="M33.661,8.979v1.015l1.417-0.001l4.24,20.506l4.121-20.506V8.979H33.661z M39.242,26.29L35.953,9.999h6.58
		L39.242,26.29z"/>
</g>
<g id="Layer_43">
	<polygon fill="#004272" points="4.025,34.908 4.025,38.062 5.031,38.062 5.031,35.994 8.035,35.994 8.035,38.062 9.031,38.062 
		9.031,34.908 	"/>
	<path fill="#004272" d="M11.453,69.986L9.875,39.011h-7L1.367,69.986H0.858v2.003H11.98v-2.003H11.453z M3.184,69.986l1.191-29.653
		l4.066,0.001l1.215,29.652H3.184z"/>
	<polygon fill="#004272" points="43.035,34.953 43.035,38.106 44.041,38.106 44.041,36.039 49.035,36.039 49.035,38.106 
		50.031,38.106 50.031,34.953 	"/>
	<path fill="#004272" d="M37.053,39.011v32.979h18.913V39.011H37.053z M54.125,69.986H38.996v-2.992h15.129V69.986z M54.125,65.938
		H38.996V40.334h15.129V65.938z"/>
	<path fill="#004272" d="M67.039,59.159v-7.175l-2.981-2.766l-3.025,2.766v7.175l-1.945,1.819v11.01L69,71.989V60.978L67.039,59.159
		z M64.043,50.235l1.773,1.749l-3.633-0.002L64.043,50.235z M65.271,52.994v4.99H62.75v-4.99H65.271z M67.127,69.986H60.92v-8.465
		l2.904-2.527h0.352l2.951,2.527V69.986z"/>
</g>
</svg>
