<?xml version="1.0" encoding="utf-8"?>
<!-- Generator: Adobe Illustrator 15.1.0, SVG Export Plug-In . SVG Version: 6.00 Build 0)  -->
<!DOCTYPE svg PUBLIC "-//W3C//DTD SVG 1.1//EN" "http://www.w3.org/Graphics/SVG/1.1/DTD/svg11.dtd">
<svg version="1.1" id="Layer_8" xmlns="http://www.w3.org/2000/svg" xmlns:xlink="http://www.w3.org/1999/xlink" x="0px" y="0px"
	 width="65px" height="48px" viewBox="0 0 65 48" enable-background="new 0 0 65 48" xml:space="preserve">
<path fill="#004272" d="M24.25,0.027C10.857,0.027,0,10.76,0,23.999c0,13.238,10.857,23.97,24.25,23.97
	c13.393,0,24.25-10.732,24.25-23.97C48.5,10.76,37.643,0.027,24.25,0.027z M24.25,46.816c-12.603,0-22.819-10.216-22.819-22.818
	c0-12.602,10.216-22.819,22.819-22.819s22.819,10.217,22.819,22.819C47.069,36.601,36.853,46.816,24.25,46.816z"/>
<path fill="#004272" d="M24.25,2.993C12.514,2.993,3,12.397,3,23.998s9.514,21.005,21.25,21.005c11.735,0,21.25-9.404,21.25-21.005
	S35.985,2.993,24.25,2.993z M24.25,43.743c-10.905,0-19.746-8.839-19.746-19.745c0-10.905,8.841-19.746,19.746-19.746
	c10.906,0,19.746,8.841,19.746,19.746C43.996,34.904,35.156,43.743,24.25,43.743z"/>
<path fill="#004272" d="M24.25,5.992C14.304,5.992,6.243,14.055,6.243,24c0,9.945,8.062,18.007,18.007,18.007
	c9.944,0,18.007-8.062,18.007-18.007C42.257,14.055,34.194,5.992,24.25,5.992z M24.25,40.615c-9.181,0-16.623-7.437-16.623-16.615
	c0-9.177,7.442-16.618,16.623-16.618S40.872,14.823,40.872,24C40.872,33.179,33.431,40.615,24.25,40.615z"/>
<path fill="#004272" d="M24.25,9.241c-8.15,0-14.757,6.607-14.757,14.757S16.1,38.754,24.25,38.754
	c8.149,0,14.756-6.605,14.756-14.756S32.399,9.241,24.25,9.241z M24.25,37.483c-7.452,0-13.493-6.035-13.493-13.485
	c0-7.449,6.041-13.489,13.493-13.489s13.491,6.04,13.491,13.489C37.741,31.448,31.702,37.483,24.25,37.483z"/>
<path fill="#004272" d="M24.251,13.174c-5.979,0-10.827,4.847-10.827,10.827s4.847,10.825,10.827,10.825
	c5.979,0,10.825-4.846,10.825-10.825S30.229,13.174,24.251,13.174z M24.251,32.665c-4.788,0-8.669-3.877-8.669-8.664
	c0-4.787,3.881-8.667,8.669-8.667c4.788,0,8.668,3.88,8.668,8.667C32.919,28.788,29.039,32.665,24.251,32.665z"/>
<path fill="#004272" d="M45.5,39.75l-7.875,7H58l7-7H45.5z M56.75,45H42.257l3.806-3.507l14.25,0.007L56.75,45z"/>
</svg>
