<?xml version="1.0" encoding="utf-8"?>
<!-- Generator: Adobe Illustrator 15.1.0, SVG Export Plug-In . SVG Version: 6.00 Build 0)  -->
<!DOCTYPE svg PUBLIC "-//W3C//DTD SVG 1.1//EN" "http://www.w3.org/Graphics/SVG/1.1/DTD/svg11.dtd">
<svg version="1.1" id="Layer_5" xmlns="http://www.w3.org/2000/svg" xmlns:xlink="http://www.w3.org/1999/xlink" x="0px" y="0px"
	 width="60px" height="38px" viewBox="0 0 60 38" enable-background="new 0 0 60 38" xml:space="preserve">
<path fill="#004272" d="M37.973,17.043l-24.365-5.514C4.428,9.434,0.024,5.625,0.024,5.625V24.75c2.024,4,11.101,6.05,11.101,6.05
	l26.849,6.89L37.973,17.043z M36,35.375L13.625,29.5c0,0-10.25-2.625-11.75-5.25V9.125c0,0,4.125,2.375,10.634,3.864l23.505,5.155
	L36,35.375z"/>
<path fill="#004272" d="M57.994,8.75V25c0,0-7.994,3.813-20.525,4.375V31.5c0,0,14.749-1.199,22.531-5.678V6.37L57.994,8.75z"/>
<path fill="#004272" d="M30,0C13.432,0,0.024,1.759,0.024,5.625S13.432,14,30,14s29.91-3.657,29.91-7.523S46.568,0,30,0z M30,13.083
	c-16,0-28.125-3.958-28.667-7.458C0.824,2.331,14,0.567,30,0.567c16,0,28.854,2.069,28.854,5.803S46,13.083,30,13.083z"/>
<path fill="#004272" d="M30.028,1.463c-13.952,0-25.243,1.328-25.243,4.246c0,2.917,11.291,6.321,25.243,6.321
	s25.187-2.761,25.187-5.679C55.215,3.434,43.98,1.463,30.028,1.463z M30.028,11.175c-13.474,0-23.162-2.863-23.618-5.504
	C5.981,3.184,16.555,1.976,30.028,1.976c13.473,0,23.641,1.591,23.641,4.41S43.501,11.175,30.028,11.175z"/>
<path fill="#004272" d="M30.021,3.147c-10.202,0-18.458,0.871-18.458,2.783s8.257,4.003,18.458,4.003
	c10.203,0,18.417-1.669,18.417-3.582C48.438,4.438,40.224,3.147,30.021,3.147z M30.021,9.192c-9.421,0-16.194-1.606-16.514-3.262
	c-0.3-1.559,9.054-2.11,16.514-2.19c8.553-0.092,16.53,0.872,16.53,2.638S39.44,9.192,30.021,9.192z"/>
<path fill="#004272" d="M29.979,4.397c-5.932,0-10.733,0.506-10.733,1.619c0,1.112,4.802,2.328,10.733,2.328
	c5.933,0,10.709-0.971,10.709-2.083S35.911,4.397,29.979,4.397z M29.824,7.516c-4.802,0-8.255-0.701-8.418-1.423
	c-0.153-0.68,4.615-0.921,8.418-0.956c4.361-0.04,8.426,0.38,8.426,1.151C38.25,7.059,34.626,7.516,29.824,7.516z"/>
</svg>
